<svg width="100" height="56" viewBox="0 0 100 56" fill="none" xmlns="http://www.w3.org/2000/svg">
<path d="M9.072 38.768V40.96H6.096V50H3.36V40.96H0.384V38.768H9.072ZM15.7571 50.112C14.7011 50.112 13.7305 49.8667 12.8451 49.376C11.9705 48.8853 11.2718 48.2027 10.7491 47.328C10.2371 46.4427 9.98112 45.4507 9.98112 44.352C9.98112 43.2533 10.2371 42.2667 10.7491 41.392C11.2718 40.5173 11.9705 39.8347 12.8451 39.344C13.7305 38.8533 14.7011 38.608 15.7571 38.608C16.8131 38.608 17.7785 38.8533 18.6531 39.344C19.5385 39.8347 20.2318 40.5173 20.7331 41.392C21.2451 42.2667 21.5011 43.2533 21.5011 44.352C21.5011 45.4507 21.2451 46.4427 20.7331 47.328C20.2211 48.2027 19.5278 48.8853 18.6531 49.376C17.7785 49.8667 16.8131 50.112 15.7571 50.112ZM15.7571 47.616C16.6531 47.616 17.3678 47.3173 17.9011 46.72C18.4451 46.1227 18.7171 45.3333 18.7171 44.352C18.7171 43.36 18.4451 42.5707 17.9011 41.984C17.3678 41.3867 16.6531 41.088 15.7571 41.088C14.8505 41.088 14.1251 41.3813 13.5811 41.968C13.0478 42.5547 12.7811 43.3493 12.7811 44.352C12.7811 45.344 13.0478 46.1387 13.5811 46.736C14.1251 47.3227 14.8505 47.616 15.7571 47.616ZM30.6219 38.768C31.8059 38.768 32.8405 39.0027 33.7259 39.472C34.6112 39.9413 35.2939 40.6027 35.7739 41.456C36.2645 42.2987 36.5099 43.2747 36.5099 44.384C36.5099 45.4827 36.2645 46.4587 35.7739 47.312C35.2939 48.1653 34.6059 48.8267 33.7099 49.296C32.8245 49.7653 31.7952 50 30.6219 50H26.4139V38.768H30.6219ZM30.4459 47.632C31.4805 47.632 32.2859 47.3493 32.8619 46.784C33.4379 46.2187 33.7259 45.4187 33.7259 44.384C33.7259 43.3493 33.4379 42.544 32.8619 41.968C32.2859 41.392 31.4805 41.104 30.4459 41.104H29.1499V47.632H30.4459ZM43.3509 50.112C42.2949 50.112 41.3242 49.8667 40.4389 49.376C39.5642 48.8853 38.8655 48.2027 38.3429 47.328C37.8309 46.4427 37.5749 45.4507 37.5749 44.352C37.5749 43.2533 37.8309 42.2667 38.3429 41.392C38.8655 40.5173 39.5642 39.8347 40.4389 39.344C41.3242 38.8533 42.2949 38.608 43.3509 38.608C44.4069 38.608 45.3722 38.8533 46.2469 39.344C47.1322 39.8347 47.8255 40.5173 48.3269 41.392C48.8389 42.2667 49.0949 43.2533 49.0949 44.352C49.0949 45.4507 48.8389 46.4427 48.3269 47.328C47.8149 48.2027 47.1215 48.8853 46.2469 49.376C45.3722 49.8667 44.4069 50.112 43.3509 50.112ZM43.3509 47.616C44.2469 47.616 44.9615 47.3173 45.4949 46.72C46.0389 46.1227 46.3109 45.3333 46.3109 44.352C46.3109 43.36 46.0389 42.5707 45.4949 41.984C44.9615 41.3867 44.2469 41.088 43.3509 41.088C42.4442 41.088 41.7189 41.3813 41.1749 41.968C40.6415 42.5547 40.3749 43.3493 40.3749 44.352C40.3749 45.344 40.6415 46.1387 41.1749 46.736C41.7189 47.3227 42.4442 47.616 43.3509 47.616ZM56.7436 47.888H60.3276V50H54.0076V38.768H56.7436V47.888ZM64.3686 38.768V50H61.6326V38.768H64.3686ZM70.4154 50.112C69.594 50.112 68.858 49.9787 68.2074 49.712C67.5567 49.4453 67.034 49.0507 66.6394 48.528C66.2554 48.0053 66.0527 47.376 66.0314 46.64H68.9434C68.986 47.056 69.13 47.376 69.3754 47.6C69.6207 47.8133 69.9407 47.92 70.3354 47.92C70.7407 47.92 71.0607 47.8293 71.2954 47.648C71.53 47.456 71.6474 47.1947 71.6474 46.864C71.6474 46.5867 71.5514 46.3573 71.3594 46.176C71.178 45.9947 70.9487 45.8453 70.6714 45.728C70.4047 45.6107 70.0207 45.4773 69.5194 45.328C68.794 45.104 68.202 44.88 67.7434 44.656C67.2847 44.432 66.89 44.1013 66.5594 43.664C66.2287 43.2267 66.0634 42.656 66.0634 41.952C66.0634 40.9067 66.442 40.0907 67.1994 39.504C67.9567 38.9067 68.9434 38.608 70.1594 38.608C71.3967 38.608 72.394 38.9067 73.1514 39.504C73.9087 40.0907 74.314 40.912 74.3674 41.968H71.4074C71.386 41.6053 71.2527 41.3227 71.0074 41.12C70.762 40.9067 70.4474 40.8 70.0634 40.8C69.7327 40.8 69.466 40.8907 69.2634 41.072C69.0607 41.2427 68.9594 41.4933 68.9594 41.824C68.9594 42.1867 69.13 42.4693 69.4714 42.672C69.8127 42.8747 70.346 43.0933 71.0714 43.328C71.7967 43.5733 72.3834 43.808 72.8314 44.032C73.29 44.256 73.6847 44.5813 74.0154 45.008C74.346 45.4347 74.5114 45.984 74.5114 46.656C74.5114 47.296 74.346 47.8773 74.0154 48.4C73.6954 48.9227 73.226 49.3387 72.6074 49.648C71.9887 49.9573 71.258 50.112 70.4154 50.112ZM84.2751 38.768V40.96H81.2991V50H78.5631V40.96H75.5871V38.768H84.2751Z" fill="#F0A8BC"/>
<rect x="5" y="7.38995" width="75" height="19.7327" rx="9.86635" fill="#A5D3D3"/>
<rect x="24.1824" width="36.6352" height="13.6792" rx="6.83962" fill="#A5D3D3"/>
<rect x="27" y="27" width="5" height="12" fill="#A5D3D3"/>
<rect x="52" y="27" width="4" height="12" fill="#A5D3D3"/>
<rect x="20" y="35" width="13" height="4" rx="2" fill="#A5D3D3"/>
<rect x="51" y="35" width="12" height="4" rx="2" fill="#A5D3D3"/>
<rect x="29.5283" y="4.87421" width="7.86164" height="7.86164" fill="black"/>
<rect x="29.5283" y="4.87421" width="7.86164" height="7.86164" fill="black"/>
<rect x="29.5283" y="4.87421" width="7.86164" height="7.86164" fill="black"/>
<rect x="47.2957" y="4.87421" width="7.86164" height="7.86164" fill="black"/>
<rect x="47.2957" y="4.87421" width="7.86164" height="7.86164" fill="black"/>
<rect x="47.2957" y="4.87421" width="7.86164" height="7.86164" fill="black"/>
<path d="M36.6038 18.3176H48.3962V22.2484H36.6038V18.3176Z" fill="white"/>
<path d="M31.8081 16.3522H39.3553V20.283H31.8081V16.3522Z" fill="white"/>
<path d="M11.478 17.2717L16.6682 11.7925L17.0718 12.1748L11.8816 17.654L11.478 17.2717Z" fill="#F0A8BC"/>
<path d="M13.6001 18.8008L18.7903 13.3216L19.1939 13.7039L14.0037 19.1831L13.6001 18.8008Z" fill="#F0A8BC"/>
<path d="M12.4995 17.936L17.6897 12.4568L18.0933 12.8392L12.9031 18.3184L12.4995 17.936Z" fill="#F0A8BC"/>
<path d="M60.739 17.1931L65.9292 11.7138L66.3328 12.0962L61.1426 17.5754L60.739 17.1931Z" fill="#F0A8BC"/>
<path d="M62.8613 18.7222L68.0515 13.243L68.4551 13.6253L63.2649 19.1046L62.8613 18.7222Z" fill="#F0A8BC"/>
<path d="M61.7605 17.8574L66.9507 12.3782L67.3543 12.7605L62.1641 18.2397L61.7605 17.8574Z" fill="#F0A8BC"/>
<path d="M45.6445 16.3522H53.1917V20.283H45.6445V16.3522Z" fill="white"/>
<path d="M30.3931 5.58173H31.9654V7.15405H30.3931V5.58173Z" fill="white"/>
<path d="M48.3569 5.58173H49.9292V7.15405H48.3569V5.58173Z" fill="white"/>
</svg>
